<svg width="22" height="18" viewBox="0 0 22 18" fill="none" xmlns="http://www.w3.org/2000/svg">
<path d="M8.28467 17.3394C7.67399 17.6447 7.07422 17.7974 6.48535 17.7974C5.63477 17.7974 4.76237 17.5575 3.86816 17.0776C2.99577 16.5978 2.25423 15.8454 1.64355 14.8203C1.03288 13.7952 0.727539 12.5194 0.727539 10.9927C0.727539 8.87712 1.39274 6.83789 2.72314 4.875C4.07536 2.91211 6.64893 1.42904 10.4438 0.425781L11.1309 2.65039C9.12435 3.17383 7.63037 3.96989 6.64893 5.03857C5.68929 6.08545 5.20947 7.18685 5.20947 8.34277C5.20947 9.2806 5.56934 10.0985 6.28906 10.7964C7.00879 11.4943 7.9248 11.8433 9.03711 11.8433C9.25521 11.8433 9.58236 11.8215 10.0186 11.7778C10.3239 12.5848 10.4766 13.2609 10.4766 13.8062C10.4766 14.6349 10.2694 15.3547 9.85498 15.9653C9.44059 16.5542 8.91715 17.0122 8.28467 17.3394ZM18.5571 17.3394C17.9465 17.6447 17.3467 17.7974 16.7578 17.7974C15.9072 17.7974 15.0348 17.5575 14.1406 17.0776C13.2682 16.5978 12.5267 15.8454 11.916 14.8203C11.3271 13.7952 11.0327 12.5194 11.0327 10.9927C11.0327 8.87712 11.6979 6.83789 13.0283 4.875C14.3805 2.91211 16.9541 1.42904 20.749 0.425781L21.4688 2.65039C19.4622 3.17383 17.9683 3.96989 16.9868 5.03857C16.0272 6.08545 15.5474 7.18685 15.5474 8.34277C15.5474 9.30241 15.8963 10.1312 16.5942 10.8291C17.314 11.5052 18.23 11.8433 19.3423 11.8433C19.5386 11.8433 19.8548 11.8215 20.291 11.7778C20.5964 12.5848 20.749 13.2609 20.749 13.8062C20.749 14.6349 20.5418 15.3547 20.1274 15.9653C19.7131 16.5542 19.1896 17.0122 18.5571 17.3394Z" fill="#EAEAEA"/>
</svg>
