<svg width="32" height="32" viewBox="0 0 32 32" fill="none" xmlns="http://www.w3.org/2000/svg">
<g id="mdi:tick">
<path id="Vector" d="M20.7122 16.2932C20.6194 16.2003 20.5092 16.1265 20.3879 16.0762C20.2666 16.0259 20.1365 16 20.0052 16C19.8739 16 19.7438 16.0259 19.6225 16.0762C19.5012 16.1265 19.391 16.2003 19.2982 16.2932L17.7042 17.8872C16.9652 17.6672 15.5862 17.1672 14.7122 16.2932C13.8382 15.4192 13.3382 14.0402 13.1182 13.3012L14.7122 11.7072C14.8052 11.6144 14.8789 11.5042 14.9292 11.3829C14.9795 11.2616 15.0054 11.1315 15.0054 11.0002C15.0054 10.8689 14.9795 10.7388 14.9292 10.6175C14.8789 10.4962 14.8052 10.386 14.7122 10.2932L10.7122 6.2932C10.6194 6.20026 10.5092 6.12652 10.3879 6.07621C10.2666 6.0259 10.1365 6 10.0052 6C9.87388 6 9.74384 6.0259 9.62252 6.07621C9.50121 6.12652 9.391 6.20026 9.29822 6.2932L6.58622 9.0052C6.20622 9.3852 5.99222 9.9072 6.00022 10.4402C6.02322 11.8642 6.40022 16.8102 10.2982 20.7082C14.1962 24.6062 19.1422 24.9822 20.5672 25.0062H20.5952C21.1232 25.0062 21.6222 24.7982 22.0002 24.4202L24.7122 21.7082C24.8052 21.6154 24.8789 21.5052 24.9292 21.3839C24.9795 21.2626 25.0054 21.1325 25.0054 21.0012C25.0054 20.8699 24.9795 20.7398 24.9292 20.6185C24.8789 20.4972 24.8052 20.387 24.7122 20.2942L20.7122 16.2932ZM20.5852 23.0052C19.3372 22.9842 15.0672 22.6492 11.7122 19.2932C8.34622 15.9272 8.02022 11.6422 8.00022 10.4192L10.0052 8.4142L12.5912 11.0002L11.2982 12.2932C11.1807 12.4107 11.0943 12.5555 11.0468 12.7148C10.9993 12.874 10.9922 13.0426 11.0262 13.2052C11.0502 13.3202 11.6372 16.0472 13.2972 17.7072C14.9572 19.3672 17.6842 19.9542 17.7992 19.9782C17.9618 20.0132 18.1305 20.0067 18.2899 19.9593C18.4492 19.9119 18.5941 19.8252 18.7112 19.7072L20.0052 18.4142L22.5912 21.0002L20.5852 23.0052Z" fill="url(#paint0_linear_259_472)"/>
</g>
<defs>
<linearGradient id="paint0_linear_259_472" x1="6.80918" y1="20.1227" x2="24.1341" y2="20.1097" gradientUnits="userSpaceOnUse">
<stop stop-color="#6741FE"/>
<stop offset="0.515625" stop-color="#CD9AEF"/>
<stop offset="1" stop-color="#6D53C9"/>
</linearGradient>
</defs>
</svg>
