<svg width="20" height="20" viewBox="0 0 20 20" fill="none" xmlns="http://www.w3.org/2000/svg">
<g id="logos:whatsapp-icon" clip-path="url(#clip0_259_486)">
<path id="Vector" d="M0.423595 9.88041C0.42313 11.5608 0.8622 13.2016 1.69708 14.6478L0.34375 19.589L5.40049 18.2631C6.79912 19.0245 8.36618 19.4235 9.95863 19.4236H9.96282C15.2198 19.4236 19.4991 15.1458 19.5013 9.88793C19.5024 7.3401 18.511 4.94428 16.71 3.1418C14.9092 1.33948 12.5142 0.346378 9.96243 0.345215C4.70484 0.345215 0.425843 4.62273 0.423672 9.88041" fill="url(#paint0_linear_259_486)"/>
<path id="Vector_2" d="M0.0829457 9.87721C0.0824031 11.6181 0.537209 13.3175 1.40186 14.8155L0 19.9339L5.23806 18.5605C6.68132 19.3474 8.30628 19.7622 9.95977 19.7629H9.96403C15.4096 19.7629 19.8426 15.3312 19.845 9.88512C19.8459 7.24574 18.8189 4.7638 16.9535 2.89674C15.0878 1.02992 12.6072 0.00108527 9.96403 0C4.51752 0 0.0851163 4.43101 0.0829457 9.87721ZM3.20233 14.5575L3.00674 14.2471C2.18457 12.9398 1.75062 11.4291 1.75124 9.87783C1.75302 5.35109 5.43705 1.66822 9.96713 1.66822C12.1609 1.66915 14.2226 2.52434 15.7733 4.07597C17.324 5.62775 18.1772 7.69054 18.1767 9.8845C18.1747 14.4112 14.4905 18.0946 9.96403 18.0946H9.96078C8.4869 18.0938 7.0414 17.698 5.78078 16.95L5.48078 16.7721L2.3724 17.5871L3.20233 14.5574V14.5575Z" fill="url(#paint1_linear_259_486)"/>
<path id="Vector_3" d="M7.49452 5.74776C7.30956 5.33668 7.11491 5.32838 6.93902 5.32117C6.79499 5.31497 6.63034 5.31544 6.46584 5.31544C6.30119 5.31544 6.03367 5.37738 5.80755 5.62427C5.58119 5.87141 4.94336 6.46862 4.94336 7.68327C4.94336 8.898 5.82809 10.0719 5.95142 10.2368C6.07491 10.4013 7.65941 12.9737 10.1689 13.9633C12.2544 14.7857 12.6789 14.6222 13.1315 14.5809C13.5842 14.5399 14.5923 13.9839 14.7979 13.4074C15.0037 12.8309 15.0037 12.3368 14.942 12.2336C14.8803 12.1307 14.7157 12.0689 14.4688 11.9455C14.2218 11.822 13.008 11.2247 12.7817 11.1423C12.5554 11.06 12.3908 11.0189 12.2262 11.2661C12.0615 11.513 11.5887 12.0689 11.4446 12.2336C11.3006 12.3986 11.1565 12.4192 10.9097 12.2957C10.6627 12.1718 9.86755 11.9114 8.92421 11.0704C8.19026 10.416 7.69475 9.60784 7.55072 9.36063C7.40669 9.11381 7.5353 8.98001 7.6591 8.85699C7.77003 8.74637 7.90607 8.56869 8.02964 8.42459C8.15274 8.2804 8.19382 8.17753 8.27615 8.01288C8.35855 7.84807 8.31731 7.70389 8.25568 7.5804C8.19382 7.45691 7.71406 6.2359 7.49452 5.74776Z" fill="white"/>
</g>
<defs>
<linearGradient id="paint0_linear_259_486" x1="958.224" y1="1924.73" x2="958.224" y2="0.345215" gradientUnits="userSpaceOnUse">
<stop stop-color="#1FAF38"/>
<stop offset="1" stop-color="#60D669"/>
</linearGradient>
<linearGradient id="paint1_linear_259_486" x1="992.248" y1="1993.39" x2="992.248" y2="0" gradientUnits="userSpaceOnUse">
<stop stop-color="#F9F9F9"/>
<stop offset="1" stop-color="white"/>
</linearGradient>
<clipPath id="clip0_259_486">
<rect width="19.845" height="20" fill="white"/>
</clipPath>
</defs>
</svg>
